PathFileType	4	(X/Y/Z)	C:\Users\Basilio\Documents\Thesis Gigler\squatting_fais\c3dfiles\047\SLS_pre_front1\markers_experimental.trc
DataRate	CameraRate	NumFrames	NumMarkers	Units	OrigDataRate	OrigDataStartFrame	OrigNumFrames
200.000000	200.000000	4	60	mm	200.000000	151	1209
Frame#	Time	FHD			LBHD			RBHD			C7			T10			CLAV			LSHO			LUUPA			LMUPA			LDUPA			LLEP			LRAD			LUL			LRFIN			RSHO			RUPA1			RMUPA			RDUPA			RLEP			RMEP			RRAD			RUL			RUFIN			LASI			RASI			USACR			LSACR			RSACR			LTHI1			LTHI2			LTHI3			LTHI4			LLFC			LMFC			LTIB1			LTIB2			LTIB3			LTIB4			LLMAL			LMMAL			LMT1			LMT2			LMT5			RTHI			RTHI2			RTHI3			RTHI4			RLFC			RMFC			RTIB1			RTIB2			RTIB3			RTIB4			RLMAL			RMMAL			RHEE			RMT1			RMT2			RMT5			LMEP			
		X1	Y1	Z1	X2	Y2	Z2	X3	Y3	Z3	X4	Y4	Z4	X5	Y5	Z5	X6	Y6	Z6	X7	Y7	Z7	X8	Y8	Z8	X9	Y9	Z9	X10	Y10	Z10	X11	Y11	Z11	X12	Y12	Z12	X13	Y13	Z13	X14	Y14	Z14	X15	Y15	Z15	X16	Y16	Z16	X17	Y17	Z17	X18	Y18	Z18	X19	Y19	Z19	X20	Y20	Z20	X21	Y21	Z21	X22	Y22	Z22	X23	Y23	Z23	X24	Y24	Z24	X25	Y25	Z25	X26	Y26	Z26	X27	Y27	Z27	X28	Y28	Z28	X29	Y29	Z29	X30	Y30	Z30	X31	Y31	Z31	X32	Y32	Z32	X33	Y33	Z33	X34	Y34	Z34	X35	Y35	Z35	X36	Y36	Z36	X37	Y37	Z37	X38	Y38	Z38	X39	Y39	Z39	X40	Y40	Z40	X41	Y41	Z41	X42	Y42	Z42	X43	Y43	Z43	X44	Y44	Z44	X45	Y45	Z45	X46	Y46	Z46	X47	Y47	Z47	X48	Y48	Z48	X49	Y49	Z49	X50	Y50	Z50	X51	Y51	Z51	X52	Y52	Z52	X53	Y53	Z53	X54	Y54	Z54	X55	Y55	Z55	X56	Y56	Z56	X57	Y57	Z57	X58	Y58	Z58	X59	Y59	Z59	X60	Y60	Z60	

152	0.755	-221.1394958496094	1720.34765625	-1069.73291015625	-399.6705017089845	1694.657104492188	-1100.321166992188	-381.1714172363282	1699.724487304688	-952.6680297851565	-435.3373413085939	1509.032592773438	-1030.979736328125	-426.4171447753907	1191.66357421875	-1021.375854492188	-282.0845031738282	1459.018432617188	-1045.53125	-349.7043762207032	1492.978637695313	-1193.27001953125	-229.4810943603516	1407.918334960938	-1294.473754882813	-202.1418151855469	1447.994506835938	-1283.931640625	-160.513656616211	1408.952026367188	-1302.693603515625	-97.06645965576175	1423.416137695313	-1306.702270507813	166.1527252197266	1416.492309570313	-1245.120727539063	160.1834411621094	1417.942260742188	-1322.1064453125	251.3897552490235	1433.026977539063	-1269.7607421875	-341.4901428222657	1504.955444335938	-897.482849121094	-200.0369567871094	1429.066650390625	-804.460632324219	-173.5197448730469	1464.220703125	-825.6111450195315	-130.1183624267578	1426.02197265625	-809.268493652344	-63.3301239013672	1439.151123046875	-821.1484985351565	-62.26619720458986	1375.908203125	-874.5657348632815	186.0341186523438	1440.3193359375	-925.1354980468752	191.6955108642578	1447.753784179688	-851.9559326171877	268.7156982421876	1460.44140625	-921.5501708984377	-217.9941101074219	991.5159912109377	-1118.081176757813	-221.4658203125001	1011.983520507813	-887.7022094726565	-411.6598510742189	1055.530151367188	-1012.336242675781	-409.6750793457032	1022.093444824219	-1039.19189453125	-413.831512451172	1025.74462890625	-980.4976806640627	-294.0836486816407	825.3545532226565	-1178.85302734375	-254.9164428710938	751.0157470703126	-1174.190307617188	-206.5794372558594	758.6073608398439	-1164.228393554688	-280.4224243164063	695.7820434570314	-1165.4111328125	-299.3091125488282	522.9758300781251	-1122.9208984375	-264.9207763671876	519.2721557617189	-1004.182189941406	-271.6928710937501	339.9824829101563	-1019.644775390625	-285.5569763183594	290.0136108398438	-1091.98828125	-266.8416748046876	289.6114501953126	-1047.736328125	-281.7927856445313	215.8148803710938	-1013.740478515625	-336.8215942382813	117.6933898925782	-1051.154663085938	-312.9894104003907	137.0033264160157	-966.7373046875002	-192.1742858886719	63.327449798584	-979.3960571289065	-189.8112335205078	58.91415786743165	-1023.891174316406	-237.5655059814454	43.37331008911134	-1069.482177734375	-218.2306823730469	841.3940429687502	-790.4262695312502	-153.97705078125	825.0110473632815	-798.8367309570315	-131.3311462402344	846.622009277344	-807.4138183593752	-121.3121337890625	748.2012329101564	-799.6646728515627	-22.08677673339844	638.8000488281251	-818.8549804687502	-7.155438899993898	636.6555786132814	-942.5109863281252	76.0164031982422	550.0639648437501	-838.7122192382815	71.96871185302736	450.2730102539064	-792.191101074219	106.8820419311524	472.6736450195314	-813.6439208984377	137.6974029541016	435.4790954589845	-847.2473754882815	166.6833801269532	277.9445800781251	-809.9174804687502	175.7059478759766	296.5663146972657	-898.846618652344	126.773063659668	220.5156555175782	-854.865173339844	323.9226074218751	285.4647827148438	-894.2642211914065	327.9852600097657	296.3812866210938	-848.7298583984377	299.6765136718751	258.1235656738282	-788.9770507812502	-86.55962371826173	1366.16845703125	-1252.618530273438	
153	0.76	-220.9122161865235	1720.411376953125	-1069.71484375	-399.9678039550782	1695.013671875	-1100.204467773438	-381.1089782714844	1699.7451171875	-952.4565429687502	-435.2350158691407	1509.063354492188	-1030.980346679688	-426.3086547851564	1191.66650390625	-1021.36572265625	-282.2274169921876	1459.000244140625	-1045.234619140625	-349.6493530273438	1493.026733398438	-1193.2080078125	-229.2708282470704	1408.069458007813	-1294.446044921875	-202.0482635498047	1448.180297851563	-1283.857299804688	-160.3656463623047	1409.087280273438	-1302.670532226563	-96.95351409912112	1423.579711914063	-1306.669067382813	166.3436279296875	1416.674194335938	-1245.064819335938	160.2898559570313	1418.183959960938	-1322.099975585938	251.3335876464844	1433.039794921875	-1269.477661132813	-341.4129638671876	1504.978271484375	-897.4492797851565	-199.894027709961	1429.10107421875	-804.4099731445315	-173.4222259521485	1464.360107421875	-825.5986938476565	-129.9124145507813	1426.072143554688	-809.3533935546877	-63.20619964599611	1439.30322265625	-821.099792480469	-62.13499832153322	1375.984985351563	-874.5991210937502	186.2088165283203	1440.45458984375	-925.1015625000002	191.7126617431641	1447.923095703125	-851.9342041015627	268.8340759277344	1460.29052734375	-921.7141113281252	-217.9301147460938	991.5799560546877	-1118.098510742188	-221.4009246826172	1011.924865722656	-887.7312622070315	-411.6252441406251	1055.576293945313	-1012.310913085938	-409.5756835937501	1022.102111816406	-1039.16845703125	-413.7732849121095	1025.79736328125	-980.4825439453127	-293.9657287597657	825.3447875976565	-1178.858154296875	-254.908676147461	751.0488891601564	-1174.1845703125	-206.5709075927735	758.5988159179689	-1164.227661132813	-280.4117126464844	695.8219604492189	-1165.319946289063	-299.2575683593751	522.9870605468751	-1122.91357421875	-264.9269714355469	519.2853393554689	-1004.176635742188	-271.6860046386719	339.9819030761719	-1019.600952148438	-285.4785461425782	290.0399780273438	-1091.826538085938	-266.7669982910157	289.4958801269532	-1047.639526367188	-281.7832641601563	215.8468170166016	-1013.689392089844	-336.8454895019532	117.7193374633789	-1051.133422851563	-312.9919433593751	136.9993743896485	-966.7196044921877	-192.0983123779297	63.345027923584	-979.4299316406252	-189.6891784667969	58.96834945678712	-1023.935974121094	-237.6880493164063	43.36556243896485	-1069.396484375	-218.2118225097657	841.3845825195315	-790.3933105468752	-153.9910278320313	824.9548339843752	-798.7832641601565	-131.3717651367188	846.5151977539065	-807.5190429687502	-121.3499221801758	748.1371459960939	-799.5812988281252	-22.14013862609864	638.7086791992189	-818.844177246094	-7.46725368499756	636.4181518554689	-942.1848754882815	75.95484924316408	550.0128784179689	-838.6564941406252	71.90969085693361	450.1870117187501	-792.2083129882815	106.7262191772461	472.5557250976564	-813.5398559570315	137.7044830322266	435.3804016113282	-847.1805419921877	166.8946990966797	278.2059631347657	-809.348327636719	175.8845520019532	296.5907897949219	-898.8514404296877	126.7833099365235	220.2817077636719	-854.7856445312502	323.7684020996094	285.3224487304688	-894.0359497070315	328.0500793457032	296.2597351074219	-848.8592529296877	299.5982971191407	258.0473937988282	-788.8883056640627	-86.2596893310547	1366.085083007813	-1252.432250976563	
154	0.765	-220.8776550292969	1720.397705078125	-1069.68505859375	-399.4548950195314	1694.684692382813	-1100.331420898438	-380.9762878417969	1699.758666992188	-952.5667724609377	-435.1336669921876	1509.029907226563	-1031.019409179688	-426.1702880859376	1191.65185546875	-1021.401489257813	-281.8982238769532	1459.126586914063	-1045.42724609375	-349.4953308105469	1493.078247070313	-1193.175903320313	-229.1753692626954	1408.17724609375	-1294.449584960938	-201.8295135498047	1448.299682617188	-1283.798706054688	-160.2763824462891	1409.1982421875	-1302.639892578125	-96.74937438964847	1423.90380859375	-1306.642333984375	166.4696502685547	1416.788696289063	-1245.020629882813	160.4863891601563	1418.461181640625	-1322.01611328125	251.438949584961	1433.114990234375	-1269.483642578125	-341.3537292480469	1504.975708007813	-897.441345214844	-199.6302947998047	1429.190795898438	-804.637390136719	-173.3075714111328	1464.396484375	-825.6411132812502	-129.8386993408203	1426.152709960938	-809.2255859375002	-63.07811737060548	1439.414916992188	-821.264343261719	-61.78324508666994	1376.062377929688	-874.903991699219	186.3541107177735	1440.709716796875	-925.200622558594	191.8076324462891	1448.03125	-851.8938598632815	269.2152099609376	1460.47998046875	-922.1660766601565	-217.7751770019532	991.560485839844	-1117.997436523438	-221.3493194580079	1011.929016113281	-887.6679687500002	-411.5317993164064	1055.5869140625	-1012.307250976563	-409.4901733398439	1022.123107910156	-1039.156982421875	-413.7450561523439	1025.780517578125	-980.4550781250002	-293.9245605468751	825.309265136719	-1178.855224609375	-254.8274230957032	751.0169067382814	-1174.186645507813	-206.5615386962891	758.5905151367189	-1164.213745117188	-280.3703308105469	695.8168945312501	-1165.326538085938	-299.2662963867188	522.9688110351564	-1122.898559570313	-264.8883361816407	519.2689819335939	-1004.214782714844	-271.6864929199219	339.9933166503907	-1019.548645019531	-285.4474792480469	290.0801696777344	-1091.78173828125	-266.7287902832032	289.5187988281251	-1047.594482421875	-281.7541198730469	215.921371459961	-1013.677124023438	-336.7637939453126	117.6983032226563	-1051.13427734375	-312.9647521972657	136.9803771972657	-966.673767089844	-192.1907348632813	63.31759643554689	-979.3489990234377	-189.6996459960938	58.95748138427736	-1023.924133300781	-237.6164855957032	43.43133926391602	-1069.492797851563	-218.2276306152344	841.3505859375002	-790.345886230469	-153.7093811035157	824.9187622070315	-797.9998779296877	-131.3203735351563	846.5244750976565	-807.407897949219	-121.3990173339844	748.0916137695314	-799.558288574219	-22.13014221191407	638.6451416015626	-818.8161621093752	-6.268924236297609	636.5278930664064	-942.2419433593752	75.8699417114258	549.9343872070314	-838.5554199218752	71.85405731201173	450.1210327148439	-792.1672973632815	106.7034530639649	472.4987182617189	-813.511169433594	137.6583404541016	435.3237609863282	-847.1523437500002	166.8753662109375	278.1826477050782	-809.3943481445315	175.7674407958985	296.4858703613282	-898.768249511719	126.7319717407227	220.1370391845704	-854.6834106445315	323.7477111816407	285.2392578125001	-893.9195556640627	327.8471374511719	296.1596679687501	-848.633239746094	299.5339660644532	257.9530334472657	-788.7937622070315	-86.01708984375001	1365.979370117188	-1252.34326171875	
155	0.77	-221.6440887451172	1719.641479492188	-1067.707885742188	-399.725311279297	1695.016723632813	-1100.141723632813	-380.9192199707032	1699.78076171875	-952.4023437500002	-435.0550842285157	1509.01318359375	-1030.997802734375	-426.0737609863282	1191.650390625	-1021.390747070313	-281.9749145507813	1459.29052734375	-1045.397705078125	-349.3895874023438	1493.184692382813	-1193.107543945313	-229.0825195312501	1408.329956054688	-1294.41064453125	-201.6369781494141	1448.4501953125	-1283.73828125	-160.0147094726563	1409.420043945313	-1302.6328125	-96.69740295410159	1423.962890625	-1306.59619140625	166.5993347167969	1416.852172851563	-1245.032348632813	160.5676879882813	1418.667846679688	-1321.99658203125	251.7678375244141	1433.30517578125	-1269.513061523438	-341.2560424804688	1505.013427734375	-897.453308105469	-199.8565216064454	1429.59765625	-805.3958129882815	-173.2279205322266	1464.511474609375	-825.700622558594	-129.7615509033203	1426.17578125	-809.3523559570315	-63.01767349243165	1439.537353515625	-821.1871337890627	-61.5548553466797	1376.196166992188	-875.034606933594	184.2425384521485	1439.648559570313	-923.6889648437502	191.8484191894532	1448.167724609375	-851.9400024414065	269.3718872070313	1461.042236328125	-923.2368164062502	-217.8258819580079	991.517028808594	-1117.933349609375	-221.3528289794922	1011.8974609375	-887.6101684570315	-411.4761962890626	1055.557983398438	-1012.284790039063	-409.4849548339845	1022.185974121094	-1039.103637695313	-413.6261596679689	1025.77734375	-980.4128417968752	-293.8575439453126	825.3070068359377	-1178.814575195313	-254.7266693115235	751.0230102539064	-1174.131958007813	-206.4526672363282	758.5534057617189	-1164.195678710938	-280.2140197753907	695.7757568359376	-1165.295776367188	-299.2616577148438	522.9782714843751	-1122.914428710938	-264.8916320800782	519.2782592773439	-1004.17138671875	-271.6794128417969	340.0018920898438	-1019.504943847656	-285.4575500488282	290.0793762207032	-1091.75390625	-266.7068176269532	289.3799743652344	-1047.489624023438	-281.7303466796876	215.9012451171876	-1013.657531738281	-336.7820434570313	117.7015075683594	-1051.110229492188	-312.9698486328126	136.9724273681641	-966.6119384765627	-192.0518035888672	63.3246307373047	-979.4082641601565	-189.8092193603516	58.92462158203126	-1023.915100097656	-237.5148010253907	43.4256820678711	-1069.469116210938	-218.2130279541016	841.359558105469	-790.359558105469	-154.0033569335938	824.936462402344	-798.8050537109377	-131.2683715820313	846.472106933594	-807.4058227539065	-121.4201278686524	748.0317993164064	-799.565612792969	-22.20661354064942	638.5042724609376	-818.7416992187502	-7.479956150054933	636.2886352539064	-942.1915283203127	75.65604400634767	549.7667236328126	-838.3150024414065	71.81663513183595	450.0992431640626	-792.1219482421877	106.6295700073242	472.4592895507814	-813.3911743164065	137.6127471923828	435.2737426757814	-847.1466064453127	166.7887725830078	278.0987548828126	-809.3237915039065	175.6558990478516	296.4237365722657	-898.684753417969	126.674301147461	220.0650024414063	-854.6387939453127	323.3129882812501	284.9843444824219	-893.2573852539065	327.9122924804688	296.2062377929688	-848.730163574219	299.3681335449219	257.9090881347657	-788.601989746094	-85.5714797973633	1365.796752929688	-1252.30908203125	
